<?xml version="1.0" encoding="iso-8859-1"?>
<!-- Generator: Adobe Illustrator 16.0.0, SVG Export Plug-In . SVG Version: 6.00 Build 0)  -->
<!DOCTYPE svg PUBLIC "-//W3C//DTD SVG 1.1//EN" "http://www.w3.org/Graphics/SVG/1.1/DTD/svg11.dtd">
<svg xmlns="http://www.w3.org/2000/svg" xmlns:xlink="http://www.w3.org/1999/xlink" version="1.1" id="Capa_1" x="0px" y="0px" width="512px" height="512px" viewBox="0 0 60.943 60.943" style="enable-background:new 0 0 60.943 60.943;" xml:space="preserve">
<g>
	<g>
		<path d="M60.848,36.033c0.687-2.598-2.483-3.507-4.804-3.827c1.03,1.53,3.411,3.2,4.735,4.013    C60.799,36.155,60.829,36.103,60.848,36.033z" fill="#FFFFFF"/>
		<path d="M12.119,24.844c0.198,0,0.396,0.05,0.592,0.147c4.379,2.202,10.922,9.292,13.683,16.34    c2.547,6.498,2.971,11.322,3.199,13.914l0.065,0.706c0.149,1.528,2.652,2.368,7.052,2.368c4.524,0,11.01-0.889,19.278-2.642    c0.528-1.537,3.122-9.382,4.338-18.516c-0.005-0.002-0.014-0.008-0.02-0.01c-1.133-0.688-4.523-2.881-5.519-5.078    c-0.132-0.291-0.226-0.583-0.263-0.871c-0.121-0.96-2.42-1.556-5.999-1.556c-0.84,0-1.524,0.034-1.836,0.052    c-0.585,0.534-2.803,2.347-5.938,2.347c-2.306,0-4.561-0.982-6.701-2.921C27.569,23.255,6.216,3.259,5.594,2.677    c0.005,0.012-0.121-0.053-0.305-0.052c-0.34,0-1.225,0.259-2.126,2.649c-0.228,0.607-0.522,1.275-0.84,1.995    c-1.794,4.071-4.254,9.648,0.161,15.776C7.549,30.076,6.264,52.916,6,56.858l2.864,0.068c-0.138-4.752-0.671-28.572,2.306-31.644    C11.521,24.919,11.88,24.844,12.119,24.844z" fill="#FFFFFF"/>
	</g>
</g>
<g>
</g>
<g>
</g>
<g>
</g>
<g>
</g>
<g>
</g>
<g>
</g>
<g>
</g>
<g>
</g>
<g>
</g>
<g>
</g>
<g>
</g>
<g>
</g>
<g>
</g>
<g>
</g>
<g>
</g>
</svg>
